<svg width="40" height="40" viewBox="0 0 40 40" fill="none" xmlns="http://www.w3.org/2000/svg">
<path d="M19.0768 28.5711C19.0768 29.3601 18.4569 29.9997 17.6922 29.9997C16.9275 29.9997 16.3076 29.3601 16.3076 28.5711C16.3076 27.7822 16.9275 27.1426 17.6922 27.1426C18.4569 27.1426 19.0768 27.7822 19.0768 28.5711Z" fill="white"/>
<path d="M28.3076 28.5711C28.3076 29.3601 27.6877 29.9997 26.923 29.9997C26.1583 29.9997 25.5384 29.3601 25.5384 28.5711C25.5384 27.7822 26.1583 27.1426 26.923 27.1426C27.6877 27.1426 28.3076 27.7822 28.3076 28.5711Z" fill="white"/>
<path fill-rule="evenodd" clip-rule="evenodd" d="M8 9C7.44772 9 7 9.44772 7 10C7 10.5523 7.44772 11 8 11H9.68148C10.4168 11 11.0909 11.4833 11.3346 12.2325L11.6096 13.0776L13.8533 23.0396C14.2399 24.7565 15.7419 26 17.5035 26H27.7758C29.5374 26 31.0394 24.7565 31.426 23.0396L32.9041 16.4771C33.435 14.1198 31.6907 11.8125 29.2539 11.8125H13.3012L13.2365 11.6137C12.733 10.066 11.3091 9 9.68148 9H8ZM24 16C24 15.4477 24.4477 15 25 15H28C28.5523 15 29 15.4477 29 16C29 16.5523 28.5523 17 28 17H25C24.4477 17 24 16.5523 24 16Z" fill="white"/>
</svg>
