<svg width="40" height="40" viewBox="0 0 40 40" fill="none" xmlns="http://www.w3.org/2000/svg">
<path fill-rule="evenodd" clip-rule="evenodd" d="M27.4222 8.08507C28.4846 8.17186 29.3717 8.35217 30.1779 8.76295C31.4951 9.43407 32.5659 10.5049 33.237 11.8221C33.6478 12.6283 33.8281 13.5154 33.9149 14.5778C33.9261 14.7141 33.9358 14.8548 33.9442 15H31.9965H26C23.2386 15 21 17.2386 21 20C21 22.7614 23.2386 25 26 25H31H32H33.9442C33.9358 25.1452 33.9261 25.2859 33.9149 25.4222C33.8281 26.4846 33.6478 27.3717 33.237 28.1779C32.5659 29.4951 31.4951 30.5659 30.1779 31.237C29.3717 31.6478 28.4846 31.8281 27.4222 31.9149C26.3809 32 25.087 32 23.4444 32H17.5731C15.914 32 14.3772 32 13.094 31.9161C11.8387 31.8341 10.6633 31.6657 9.82207 31.237C8.50493 30.5659 7.43407 29.4951 6.76295 28.1779C6.35217 27.3717 6.17186 26.4846 6.08507 25.4222C5.99999 24.3809 5.99999 23.087 6 21.4444V18.5556C5.99999 16.913 5.99999 15.6191 6.08507 14.5778C6.17186 13.5154 6.35217 12.6283 6.76295 11.8221C7.43407 10.5049 8.50493 9.43407 9.82207 8.76295C10.6633 8.33432 11.8387 8.16593 13.094 8.08388C14.3771 8 15.914 8 17.5731 8L23.4444 8C25.087 7.99999 26.3809 7.99999 27.4222 8.08507ZM12 13H18C18.5523 13 19 13.4477 19 14C19 14.5523 18.5523 15 18 15H12C11.4477 15 11 14.5523 11 14C11 13.4477 11.4477 13 12 13Z" fill="white"/>
<path fill-rule="evenodd" clip-rule="evenodd" d="M33.9965 17H26C24.3431 17 23 18.3431 23 20C23 21.6569 24.3431 23 26 23H34C34.0022 22.6846 34.0015 22.3481 34.0008 21.988V21.9878V21.9876C34.0004 21.801 34 21.6079 34 21.4083V21.4V18.6C34 18.0115 33.9999 17.4812 33.9965 17ZM27 19H26C25.4477 19 25 19.4477 25 20C25 20.5523 25.4477 21 26 21H27C27.5523 21 28 20.5523 28 20C28 19.4477 27.5523 19 27 19Z" fill="white"/>
</svg>
