<svg width="448" height="79" viewBox="0 0 448 79" fill="none" xmlns="http://www.w3.org/2000/svg">
<path d="M0 16.9564V7.32917H62.9812V16.9564H37.8268V74.0526H25.2497V16.9564H0Z" fill="white"/>
<path d="M106.472 37.5454V47.1726H84.1762V74.0526H71.599V7.32917H107.901V16.9564H84.1762V37.5454H106.472Z" fill="white"/>
<path d="M130.326 64.4254H160.53V74.0526H113.652V73.9573C115.24 72.6228 116.764 71.3201 118.225 70.0492C124.196 64.9655 129.056 60.4537 132.803 56.5139C136.551 52.574 139.505 48.5071 141.665 44.313C143.888 40.119 144.999 35.7661 144.999 31.2543C144.999 28.3947 144.015 25.8211 142.046 23.5334C140.077 21.2458 137.059 19.4347 132.994 18.1002C128.929 16.7022 124.006 16.0032 118.225 16.0032V6.37598C125.022 6.37598 131.438 7.2974 137.472 9.14023C143.507 10.9195 148.366 13.5567 152.05 17.0517C155.798 20.5468 157.672 24.6773 157.672 29.4432C157.672 34.5269 156.338 39.6106 153.67 44.6943C151.002 49.778 147.54 54.6075 143.284 59.1828C139.092 63.7581 134.01 68.7147 128.039 74.0526L130.326 64.4254Z" fill="white"/>
<path d="M242.581 16.0033C239.595 16.0033 236.864 16.5435 234.386 17.6238C231.973 18.6405 230.067 20.0067 228.669 21.7225C227.272 23.3747 226.573 25.1858 226.573 27.1557C226.573 28.6808 227.59 30.4283 229.622 32.3982C231.655 34.3046 234.005 36.211 236.673 38.1174L238.865 39.8331C241.914 42.2479 244.296 44.7262 246.011 47.268C247.726 49.8099 248.583 52.6695 248.583 55.8468C248.583 59.8502 246.773 63.3134 243.152 66.2366C239.595 69.0961 235.276 71.2885 230.194 72.8136C225.112 74.2751 220.475 75.0059 216.283 75.0059V65.3787C219.522 65.3787 222.667 64.9021 225.716 63.9489C228.828 62.9322 231.306 61.5977 233.148 59.9455C235.053 58.2933 236.006 56.514 236.006 54.6076C236.006 52.7012 235.022 50.6995 233.052 48.6025C231.083 46.5055 228.606 44.2496 225.62 41.8348C225.112 41.5171 224.636 41.1676 224.191 40.7863L223.238 40.0238C221.142 38.3716 219.459 36.91 218.188 35.6391C216.918 34.3046 215.902 32.8113 215.139 31.1591C214.377 29.5069 213.996 27.5687 213.996 25.3446C213.996 21.786 215.616 18.577 218.855 15.7174C222.095 12.7943 225.97 10.5066 230.48 8.8544C235.053 7.2022 239.087 6.3761 242.581 6.3761V16.0033Z" fill="white"/>
<path d="M269.792 74.0527H257.215V7.32929H269.792V33.828H305.428V7.32929H318.005V74.0527H305.428V43.4553H269.792V74.0527Z" fill="white"/>
<path d="M405.219 46.1242C410.936 46.1242 416.081 45.3934 420.654 43.9319C425.291 42.4703 428.912 40.3733 431.517 37.6408C434.184 34.8448 435.518 31.5721 435.518 27.8229C435.518 24.7727 434.47 22.4215 432.374 20.7693C430.341 19.0536 427.165 17.8462 422.846 17.1472C418.526 16.3846 412.651 16.0033 405.219 16.0033V6.3761C418.558 6.3761 429.007 7.90121 436.566 10.9514C444.189 14.0016 448 19.0218 448 26.0119C448 31.1591 446.19 36.0204 442.569 40.5957C439.012 45.1075 433.994 48.7614 427.515 51.5574C421.036 54.3534 413.604 55.7515 405.219 55.7515V46.1242ZM405.219 74.0527V7.32929L417.796 7.90121V74.0527H405.219Z" fill="white"/>
<path d="M370.533 5.41831C385.72 9.29813 396.949 23.0752 396.949 39.4766C396.949 39.8509 396.942 40.2234 396.929 40.5948L373.297 37.232C372.605 33.6695 370.299 30.6864 367.17 29.071L370.533 5.41831ZM351.412 34.1172C353.027 30.9874 356.009 28.6803 359.57 27.9881L362.931 4.34588C362.56 4.33428 362.188 4.32642 361.814 4.32642C345.419 4.32642 331.648 15.5599 327.769 30.7524L351.412 34.1172ZM356.456 49.8824C353.328 48.267 351.022 45.2834 350.33 41.7213L326.697 38.3581C326.686 38.7297 326.678 39.1023 326.678 39.4766C326.678 55.8774 337.907 69.6542 353.093 73.5344L356.456 49.8824ZM372.215 44.8358C370.6 47.9656 367.618 50.2724 364.057 50.9648L360.695 74.6075C361.067 74.6191 361.439 74.6271 361.813 74.6271C378.208 74.6271 391.98 63.393 395.858 48.2007L372.215 44.8358Z" fill="url(#paint0_linear_1_25)"/>
<path d="M370.533 5.41831C385.72 9.29813 396.949 23.0752 396.949 39.4766C396.949 39.8509 396.942 40.2234 396.929 40.5948L373.297 37.232C372.605 33.6695 370.299 30.6864 367.17 29.071L370.533 5.41831ZM351.412 34.1172C353.027 30.9874 356.009 28.6803 359.57 27.9881L362.931 4.34588C362.56 4.33428 362.188 4.32642 361.814 4.32642C345.419 4.32642 331.648 15.5599 327.769 30.7524L351.412 34.1172ZM356.456 49.8824C353.328 48.267 351.022 45.2834 350.33 41.7213L326.697 38.3581C326.686 38.7297 326.678 39.1023 326.678 39.4766C326.678 55.8774 337.907 69.6542 353.093 73.5344L356.456 49.8824ZM372.215 44.8358C370.6 47.9656 367.618 50.2724 364.057 50.9648L360.695 74.6075C361.067 74.6191 361.439 74.6271 361.813 74.6271C378.208 74.6271 391.98 63.393 395.858 48.2007L372.215 44.8358Z" fill="url(#paint1_radial_1_25)"/>
<defs>
<linearGradient id="paint0_linear_1_25" x1="369.6" y1="73.7606" x2="354.016" y2="5.19521" gradientUnits="userSpaceOnUse">
<stop stop-color="#FF1D00"/>
<stop offset="1" stop-color="#0500FF"/>
</linearGradient>
<radialGradient id="paint1_radial_1_25" cx="0" cy="0" r="1" gradientUnits="userSpaceOnUse" gradientTransform="translate(332.838 7.06112) rotate(12.2091) scale(59.8707 35.8538)">
<stop stop-color="white" stop-opacity="0"/>
<stop offset="0.4657" stop-color="white" stop-opacity="0.0804"/>
<stop offset="0.9861" stop-color="white" stop-opacity="0.2143"/>
<stop offset="1" stop-color="white" stop-opacity="0"/>
</radialGradient>
</defs>
</svg>
