<svg width="112" height="20" viewBox="0 0 112 20" fill="none" xmlns="http://www.w3.org/2000/svg">
<path d="M0 4.2661V1.81762H15.7453V4.2661H9.4567V18.7873H6.31241V4.2661H0Z" fill="white"/>
<path d="M26.618 9.50247V11.951H21.044V18.7873H17.8997V1.81762H26.9753V4.2661H21.044V9.50247H26.618Z" fill="white"/>
<path d="M32.5815 16.3388H40.1326V18.7873H28.4129V18.7631C28.8099 18.4237 29.191 18.0924 29.5563 17.7691C31.049 16.4762 32.2639 15.3287 33.2008 14.3267C34.1377 13.3247 34.8762 12.2903 35.4161 11.2237C35.9719 10.157 36.2498 9.04994 36.2498 7.90247C36.2498 7.1752 36.0037 6.52065 35.5114 5.93883C35.0191 5.35701 34.2648 4.89641 33.2485 4.55701C32.2321 4.20146 31.0014 4.02368 29.5563 4.02368V1.5752C31.2555 1.5752 32.8594 1.80954 34.368 2.27823C35.8766 2.73075 37.0915 3.40146 38.0125 4.29035C38.9495 5.17924 39.4179 6.22974 39.4179 7.44186C39.4179 8.73479 39.0845 10.0277 38.4175 11.3207C37.7505 12.6136 36.885 13.8419 35.8211 15.0055C34.773 16.1691 33.5025 17.4297 32.0098 18.7873L32.5815 16.3388Z" fill="white"/>
<path d="M60.6442 4.02368C59.8978 4.02368 59.2149 4.16105 58.5956 4.4358C57.9922 4.69439 57.5158 5.04186 57.1664 5.47823C56.817 5.89843 56.6423 6.35903 56.6423 6.86004C56.6423 7.24792 56.8964 7.69237 57.4046 8.19338C57.9128 8.67823 58.5003 9.16308 59.1673 9.64792L59.7152 10.0843C60.4774 10.6984 61.0729 11.3287 61.5017 11.9752C61.9305 12.6217 62.1449 13.3489 62.1449 14.157C62.1449 15.1752 61.6923 16.056 60.7871 16.7994C59.8978 17.5267 58.8179 18.0843 57.5475 18.4722C56.2771 18.8439 55.1178 19.0297 54.0697 19.0297V16.5813C54.8796 16.5813 55.6657 16.46 56.428 16.2176C57.2061 15.959 57.8254 15.6196 58.2859 15.1994C58.7624 14.7792 59.0006 14.3267 59.0006 13.8419C59.0006 13.357 58.7544 12.8479 58.2621 12.3146C57.7698 11.7813 57.1505 11.2075 56.4041 10.5934C56.2771 10.5126 56.158 10.4237 56.0468 10.3267L55.8086 10.1328C55.2846 9.71257 54.8638 9.34085 54.5461 9.01762C54.2285 8.67823 53.9745 8.29843 53.7839 7.87823C53.5933 7.45802 53.498 6.96509 53.498 6.39944C53.498 5.49439 53.903 4.67823 54.7129 3.95095C55.5228 3.20752 56.4915 2.6257 57.619 2.2055C58.7624 1.7853 59.7708 1.5752 60.6442 1.5752V4.02368Z" fill="white"/>
<path d="M67.4471 18.7873H64.3028V1.81762H67.4471V8.55701H76.356V1.81762H79.5003V18.7873H76.356V11.0055H67.4471V18.7873Z" fill="white"/>
<path d="M101.305 11.6843C102.734 11.6843 104.02 11.4984 105.164 11.1267C106.323 10.755 107.228 10.2217 107.879 9.52671C108.546 8.8156 108.88 7.98328 108.88 7.02974C108.88 6.25398 108.618 5.656 108.094 5.2358C107.585 4.79944 106.791 4.49237 105.711 4.31459C104.632 4.12065 103.163 4.02368 101.305 4.02368V1.5752C104.64 1.5752 107.252 1.96307 109.142 2.73883C111.047 3.51459 112 4.79136 112 6.56914C112 7.87823 111.547 9.11459 110.642 10.2782C109.753 11.4257 108.498 12.355 106.879 13.0661C105.259 13.7772 103.401 14.1328 101.305 14.1328V11.6843ZM101.305 18.7873V1.81762L104.449 1.96307V18.7873H101.305Z" fill="white"/>
<path d="M92.6319 1.33141C96.4284 2.31816 99.2359 5.82206 99.2359 9.99341C99.2359 10.0886 99.2339 10.1834 99.2309 10.2778L93.3227 9.42256C93.1498 8.51651 92.5732 7.75781 91.791 7.34696L92.6319 1.33141ZM87.8515 8.63036C88.2552 7.83436 89.0007 7.24761 89.8909 7.07156L90.7314 1.05866C90.6385 1.05571 90.5455 1.05371 90.4519 1.05371C86.3533 1.05371 82.9105 3.91071 81.9408 7.77461L87.8515 8.63036ZM89.1126 12.6399C88.3305 12.2291 87.7539 11.4703 87.581 10.5643L81.6728 9.70896C81.6699 9.80346 81.668 9.89821 81.668 9.99341C81.668 14.1646 84.4752 17.6685 88.2718 18.6553L89.1126 12.6399ZM93.0523 11.3564C92.6486 12.1524 91.9031 12.7391 91.0128 12.9152L90.1724 18.9282C90.2653 18.9312 90.3584 18.9332 90.4518 18.9332C94.5505 18.9332 97.9934 16.0761 98.9629 12.2122L93.0523 11.3564Z" fill="url(#paint0_linear_1_1638)"/>
<path d="M92.6319 1.33141C96.4284 2.31816 99.2359 5.82206 99.2359 9.99341C99.2359 10.0886 99.2339 10.1834 99.2309 10.2778L93.3227 9.42256C93.1498 8.51651 92.5732 7.75781 91.791 7.34696L92.6319 1.33141ZM87.8515 8.63036C88.2552 7.83436 89.0007 7.24761 89.8909 7.07156L90.7314 1.05866C90.6385 1.05571 90.5455 1.05371 90.4519 1.05371C86.3533 1.05371 82.9105 3.91071 81.9408 7.77461L87.8515 8.63036ZM89.1126 12.6399C88.3305 12.2291 87.7539 11.4703 87.581 10.5643L81.6728 9.70896C81.6699 9.80346 81.668 9.89821 81.668 9.99341C81.668 14.1646 84.4752 17.6685 88.2718 18.6553L89.1126 12.6399ZM93.0523 11.3564C92.6486 12.1524 91.9031 12.7391 91.0128 12.9152L90.1724 18.9282C90.2653 18.9312 90.3584 18.9332 90.4518 18.9332C94.5505 18.9332 97.9934 16.0761 98.9629 12.2122L93.0523 11.3564Z" fill="url(#paint1_radial_1_1638)"/>
<defs>
<linearGradient id="paint0_linear_1_1638" x1="92.3984" y1="18.7128" x2="88.3733" y2="1.30454" gradientUnits="userSpaceOnUse">
<stop stop-color="#FF1D00"/>
<stop offset="1" stop-color="#0500FF"/>
</linearGradient>
<radialGradient id="paint1_radial_1_1638" cx="0" cy="0" r="1" gradientUnits="userSpaceOnUse" gradientTransform="translate(83.208 1.74923) rotate(12.414) scale(14.9793 9.11154)">
<stop stop-color="white" stop-opacity="0"/>
<stop offset="0.4657" stop-color="white" stop-opacity="0.0804"/>
<stop offset="0.9861" stop-color="white" stop-opacity="0.2143"/>
<stop offset="1" stop-color="white" stop-opacity="0"/>
</radialGradient>
</defs>
</svg>
