<svg width="188" height="33" viewBox="0 0 188 33" fill="none" xmlns="http://www.w3.org/2000/svg">
<path d="M0 7.0401V3.0001H26.4296V7.0401H15.8738V31.0001H10.5958V7.0401H0Z" fill="white"/>
<path d="M44.6802 15.6801V19.7201H35.3239V31.0001H30.046V3.0001H45.28V7.0401H35.3239V15.6801H44.6802Z" fill="white"/>
<path d="M54.6903 26.9601H67.3654V31.0001H47.6931V30.9601C48.3595 30.4001 48.9993 29.8534 49.6123 29.3201C52.118 27.1868 54.1572 25.2934 55.7299 23.6401C57.3026 21.9868 58.5422 20.2801 59.4485 18.5201C60.3814 16.7601 60.8479 14.9334 60.8479 13.0401C60.8479 11.8401 60.4347 10.7601 59.6084 9.8001C58.7821 8.8401 57.5159 8.0801 55.8099 7.5201C54.1039 6.93343 52.0381 6.6401 49.6123 6.6401V2.6001C52.4646 2.6001 55.1568 2.98676 57.6892 3.7601C60.2215 4.50676 62.2607 5.61343 63.8068 7.0801C65.3795 8.54676 66.1658 10.2801 66.1658 12.2801C66.1658 14.4134 65.6061 16.5468 64.4865 18.6801C63.3669 20.8134 61.9142 22.8401 60.1282 24.7601C58.3689 26.6801 56.2364 28.7601 53.7307 31.0001L54.6903 26.9601Z" fill="white"/>
<path d="M101.798 6.6401C100.545 6.6401 99.399 6.86677 98.3594 7.3201C97.3464 7.74676 96.5467 8.3201 95.9603 9.0401C95.3739 9.73343 95.0807 10.4934 95.0807 11.3201C95.0807 11.9601 95.5072 12.6934 96.3602 13.5201C97.2132 14.3201 98.1994 15.1201 99.319 15.9201L100.239 16.6401C101.518 17.6534 102.518 18.6934 103.237 19.7601C103.957 20.8268 104.317 22.0268 104.317 23.3601C104.317 25.0401 103.557 26.4934 102.038 27.7201C100.545 28.9201 98.7326 29.8401 96.6001 30.4801C94.4676 31.0934 92.5217 31.4001 90.7624 31.4001V27.3601C92.1218 27.3601 93.4413 27.1601 94.7208 26.7601C96.027 26.3334 97.0665 25.7734 97.8396 25.0801C98.6393 24.3868 99.0391 23.6401 99.0391 22.8401C99.0391 22.0401 98.6259 21.2001 97.7996 20.3201C96.9732 19.4401 95.9337 18.4934 94.6808 17.4801C94.4676 17.3468 94.2676 17.2001 94.0811 17.0401L93.6812 16.7201C92.8016 16.0268 92.0952 15.4134 91.562 14.8801C91.0289 14.3201 90.6024 13.6934 90.2825 13.0001C89.9627 12.3068 89.8027 11.4934 89.8027 10.5601C89.8027 9.06676 90.4825 7.7201 91.8419 6.5201C93.2014 5.29343 94.8274 4.33343 96.72 3.6401C98.6393 2.94676 100.332 2.6001 101.798 2.6001V6.6401Z" fill="white"/>
<path d="M113.217 31.0001H107.939V3.0001H113.217V14.1201H128.171V3.0001H133.449V31.0001H128.171V18.1601H113.217V31.0001Z" fill="white"/>
<path d="M170.047 19.2801C172.446 19.2801 174.605 18.9734 176.524 18.3601C178.47 17.7468 179.99 16.8668 181.083 15.7201C182.202 14.5468 182.762 13.1734 182.762 11.6001C182.762 10.3201 182.322 9.33343 181.442 8.6401C180.589 7.9201 179.257 7.41343 177.444 7.1201C175.631 6.8001 173.166 6.6401 170.047 6.6401V2.6001C175.645 2.6001 180.03 3.2401 183.202 4.5201C186.4 5.8001 188 7.90677 188 10.8401C188 13.0001 187.24 15.0401 185.721 16.9601C184.228 18.8534 182.122 20.3868 179.403 21.5601C176.684 22.7334 173.565 23.3201 170.047 23.3201V19.2801ZM170.047 31.0001V3.0001L175.325 3.2401V31.0001H170.047Z" fill="white"/>
<path d="M155.492 2.19795C161.864 3.82609 166.577 9.60752 166.577 16.4902C166.577 16.6473 166.574 16.8037 166.568 16.9595L156.651 15.5483C156.361 14.0534 155.393 12.8015 154.08 12.1236L155.492 2.19795ZM147.467 14.2412C148.145 12.9278 149.396 11.9597 150.891 11.6692L152.302 1.74791C152.146 1.74305 151.99 1.73975 151.832 1.73975C144.953 1.73975 139.173 6.4538 137.546 12.8292L147.467 14.2412ZM149.584 20.857C148.271 20.1791 147.304 18.9271 147.013 17.4322L137.096 16.0209C137.091 16.1768 137.088 16.3332 137.088 16.4902C137.088 23.3727 141.8 29.1541 148.173 30.7824L149.584 20.857ZM156.197 18.7392C155.52 20.0526 154.268 21.0207 152.774 21.3112L151.363 31.2327C151.519 31.2375 151.675 31.2409 151.832 31.2409C158.712 31.2409 164.491 26.5266 166.119 20.1513L156.197 18.7392Z" fill="url(#paint0_linear_1_206)"/>
<path d="M155.492 2.19795C161.864 3.82609 166.577 9.60752 166.577 16.4902C166.577 16.6473 166.574 16.8037 166.568 16.9595L156.651 15.5483C156.361 14.0534 155.393 12.8015 154.08 12.1236L155.492 2.19795ZM147.467 14.2412C148.145 12.9278 149.396 11.9597 150.891 11.6692L152.302 1.74791C152.146 1.74305 151.99 1.73975 151.832 1.73975C144.953 1.73975 139.173 6.4538 137.546 12.8292L147.467 14.2412ZM149.584 20.857C148.271 20.1791 147.304 18.9271 147.013 17.4322L137.096 16.0209C137.091 16.1768 137.088 16.3332 137.088 16.4902C137.088 23.3727 141.8 29.1541 148.173 30.7824L149.584 20.857ZM156.197 18.7392C155.52 20.0526 154.268 21.0207 152.774 21.3112L151.363 31.2327C151.519 31.2375 151.675 31.2409 151.832 31.2409C158.712 31.2409 164.491 26.5266 166.119 20.1513L156.197 18.7392Z" fill="url(#paint1_radial_1_206)"/>
<defs>
<linearGradient id="paint0_linear_1_206" x1="155.1" y1="30.8773" x2="148.56" y2="2.10433" gradientUnits="userSpaceOnUse">
<stop stop-color="#FF1D00"/>
<stop offset="1" stop-color="#0500FF"/>
</linearGradient>
<radialGradient id="paint1_radial_1_206" cx="0" cy="0" r="1" gradientUnits="userSpaceOnUse" gradientTransform="translate(139.673 2.88735) rotate(12.2091) scale(25.1243 15.0458)">
<stop stop-color="white" stop-opacity="0"/>
<stop offset="0.4657" stop-color="white" stop-opacity="0.0804"/>
<stop offset="0.9861" stop-color="white" stop-opacity="0.2143"/>
<stop offset="1" stop-color="white" stop-opacity="0"/>
</radialGradient>
</defs>
</svg>
