<svg width="184" height="50" viewBox="0 0 184 50" fill="none" xmlns="http://www.w3.org/2000/svg">
<path d="M22 35.6531H1V1L182.5 1.00024V35.6533L39.5 35.6531H38.9626L38.666 36.1013L30.9764 47.7234L22.819 36.0793L22.5204 35.6531H22Z" fill="#232323" stroke="url(#paint0_linear_1_281)" stroke-width="2"/>
<path d="M28.7642 22.5V12.7H31.9842C32.9036 12.7 33.6479 12.91 34.2172 13.33C34.7912 13.7453 35.0782 14.359 35.0782 15.171C35.0782 15.4837 35.0012 15.7847 34.8472 16.074C34.6932 16.3587 34.4949 16.6083 34.2522 16.823C34.0142 17.0377 33.7669 17.1893 33.5102 17.278C34.0469 17.4367 34.4972 17.733 34.8612 18.167C35.2299 18.601 35.4142 19.14 35.4142 19.784C35.4142 20.3113 35.2812 20.778 35.0152 21.184C34.7539 21.59 34.3782 21.912 33.8882 22.15C33.4029 22.3833 32.8266 22.5 32.1592 22.5H28.7642ZM30.0802 21.422H31.9212C32.6446 21.422 33.1812 21.282 33.5312 21.002C33.8859 20.722 34.0632 20.2927 34.0632 19.714C34.0632 19.1493 33.8836 18.72 33.5242 18.426C33.1696 18.1273 32.6142 17.978 31.8582 17.978H30.0802V21.422ZM30.0802 16.942H31.7672C32.1732 16.942 32.5279 16.8767 32.8312 16.746C33.1346 16.6153 33.3679 16.4287 33.5312 16.186C33.6992 15.9387 33.7832 15.6423 33.7832 15.297C33.7832 14.8023 33.6059 14.4243 33.2512 14.163C32.9012 13.9017 32.3996 13.771 31.7462 13.771H30.0802V16.942ZM37.5279 22.5V12.7H38.8439V16.627H40.8809C41.5622 16.627 42.1642 16.7437 42.6869 16.977C43.2142 17.2103 43.6249 17.5487 43.9189 17.992C44.2176 18.4307 44.3669 18.958 44.3669 19.574C44.3669 20.0453 44.2899 20.463 44.1359 20.827C43.9819 21.191 43.7532 21.499 43.4499 21.751C43.1512 21.9983 42.7849 22.185 42.3509 22.311C41.9169 22.437 41.4176 22.5 40.8529 22.5H37.5279ZM38.8439 21.345H40.8949C41.5809 21.345 42.1106 21.2003 42.4839 20.911C42.8619 20.6217 43.0509 20.1853 43.0509 19.602C43.0509 19.0327 42.8572 18.5893 42.4699 18.272C42.0872 17.9547 41.5669 17.796 40.9089 17.796H38.8439V21.345ZM45.7739 22.5V12.7H47.0899V22.5H45.7739ZM49.7232 22.5V12.7H52.9432C53.8626 12.7 54.6069 12.91 55.1762 13.33C55.7502 13.7453 56.0372 14.359 56.0372 15.171C56.0372 15.4837 55.9602 15.7847 55.8062 16.074C55.6522 16.3587 55.4539 16.6083 55.2112 16.823C54.9732 17.0377 54.7259 17.1893 54.4692 17.278C55.0059 17.4367 55.4562 17.733 55.8202 18.167C56.1889 18.601 56.3732 19.14 56.3732 19.784C56.3732 20.3113 56.2402 20.778 55.9742 21.184C55.7129 21.59 55.3372 21.912 54.8472 22.15C54.3619 22.3833 53.7856 22.5 53.1182 22.5H49.7232ZM51.0392 21.422H52.8802C53.6036 21.422 54.1402 21.282 54.4902 21.002C54.8449 20.722 55.0222 20.2927 55.0222 19.714C55.0222 19.1493 54.8426 18.72 54.4832 18.426C54.1286 18.1273 53.5732 17.978 52.8172 17.978H51.0392V21.422ZM51.0392 16.942H52.7262C53.1322 16.942 53.4869 16.8767 53.7902 16.746C54.0936 16.6153 54.3269 16.4287 54.4902 16.186C54.6582 15.9387 54.7422 15.6423 54.7422 15.297C54.7422 14.8023 54.5649 14.4243 54.2102 14.163C53.8602 13.9017 53.3586 13.771 52.7052 13.771H51.0392V16.942ZM58.4869 22.5V12.7H64.6329V13.876H59.8029V16.795H64.0099V17.922H59.8029V21.317H64.6749V22.5H58.4869ZM71.4015 22.71C70.3888 22.71 69.5021 22.5 68.7415 22.08C67.9855 21.6553 67.3975 21.0603 66.9775 20.295C66.5621 19.525 66.3545 18.6267 66.3545 17.6C66.3545 16.858 66.4781 16.1767 66.7255 15.556C66.9728 14.9307 67.3228 14.3893 67.7755 13.932C68.2281 13.4747 68.7625 13.12 69.3785 12.868C69.9991 12.616 70.6758 12.49 71.4085 12.49C72.1318 12.49 72.7641 12.581 73.3055 12.763C73.8468 12.9403 74.3135 13.1947 74.7055 13.526L74.0055 14.604C73.6881 14.3193 73.3195 14.107 72.8995 13.967C72.4795 13.827 72.0151 13.757 71.5065 13.757C70.9325 13.757 70.4121 13.8457 69.9455 14.023C69.4788 14.2003 69.0798 14.457 68.7485 14.793C68.4218 15.1243 68.1698 15.5257 67.9925 15.997C67.8151 16.4683 67.7265 16.998 67.7265 17.586C67.7265 18.398 67.8828 19.091 68.1955 19.665C68.5128 20.239 68.9608 20.6777 69.5395 20.981C70.1181 21.2797 70.8018 21.429 71.5905 21.429C72.0991 21.429 72.5868 21.3543 73.0535 21.205C73.5248 21.051 73.9658 20.8013 74.3765 20.456L74.9925 21.576C74.5118 21.954 73.9728 22.2387 73.3755 22.43C72.7828 22.6167 72.1248 22.71 71.4015 22.71ZM78.6292 22.5V13.911H75.8222V12.7H82.7522V13.911H79.9452V22.5H78.6292ZM84.4771 22.5V12.7H85.7861V20.302L91.0011 12.7H92.2471V22.5H90.9381V14.849L85.7091 22.5H84.4771ZM98.3814 22.5V12.7H101.601C102.521 12.7 103.265 12.91 103.834 13.33C104.408 13.7453 104.695 14.359 104.695 15.171C104.695 15.4837 104.618 15.7847 104.464 16.074C104.31 16.3587 104.112 16.6083 103.869 16.823C103.631 17.0377 103.384 17.1893 103.127 17.278C103.664 17.4367 104.114 17.733 104.478 18.167C104.847 18.601 105.031 19.14 105.031 19.784C105.031 20.3113 104.898 20.778 104.632 21.184C104.371 21.59 103.995 21.912 103.505 22.15C103.02 22.3833 102.444 22.5 101.776 22.5H98.3814ZM99.6974 21.422H101.538C102.262 21.422 102.798 21.282 103.148 21.002C103.503 20.722 103.68 20.2927 103.68 19.714C103.68 19.1493 103.501 18.72 103.141 18.426C102.787 18.1273 102.231 17.978 101.475 17.978H99.6974V21.422ZM99.6974 16.942H101.384C101.79 16.942 102.145 16.8767 102.448 16.746C102.752 16.6153 102.985 16.4287 103.148 16.186C103.316 15.9387 103.4 15.6423 103.4 15.297C103.4 14.8023 103.223 14.4243 102.868 14.163C102.518 13.9017 102.017 13.771 101.363 13.771H99.6974V16.942ZM113.76 22.71C113.102 22.71 112.46 22.619 111.835 22.437C111.21 22.2503 110.682 21.9843 110.253 21.639L110.911 20.61C111.154 20.8107 111.429 20.981 111.737 21.121C112.045 21.261 112.372 21.3683 112.717 21.443C113.062 21.5177 113.412 21.555 113.767 21.555C114.462 21.555 115.02 21.4197 115.44 21.149C115.865 20.8783 116.077 20.4817 116.077 19.959C116.077 19.5763 115.935 19.252 115.65 18.986C115.37 18.72 114.845 18.4773 114.075 18.258L113.011 17.943C112.115 17.6817 111.459 17.3387 111.044 16.914C110.629 16.4893 110.421 15.9573 110.421 15.318C110.421 14.8887 110.507 14.5013 110.68 14.156C110.853 13.8107 111.095 13.5143 111.408 13.267C111.721 13.015 112.089 12.8237 112.514 12.693C112.943 12.5577 113.412 12.49 113.921 12.49C114.551 12.49 115.137 12.5833 115.678 12.77C116.224 12.952 116.674 13.197 117.029 13.505L116.35 14.492C116.14 14.3147 115.9 14.163 115.629 14.037C115.358 13.9063 115.069 13.8083 114.761 13.743C114.453 13.673 114.14 13.638 113.823 13.638C113.398 13.638 113.023 13.701 112.696 13.827C112.374 13.9483 112.122 14.1303 111.94 14.373C111.763 14.611 111.674 14.9003 111.674 15.241C111.674 15.4883 111.732 15.7053 111.849 15.892C111.966 16.074 112.169 16.242 112.458 16.396C112.747 16.55 113.146 16.7017 113.655 16.851L114.789 17.187C115.662 17.4437 116.303 17.782 116.714 18.202C117.125 18.6173 117.33 19.1633 117.33 19.84C117.33 20.4093 117.19 20.911 116.91 21.345C116.635 21.7743 116.231 22.1103 115.699 22.353C115.167 22.591 114.521 22.71 113.76 22.71ZM121.285 22.5V13.911H118.478V12.7H125.408V13.911H122.601V22.5H121.285ZM127.133 22.5V12.7H133.279V13.876H128.449V16.795H132.656V17.922H128.449V21.317H133.321V22.5H127.133ZM134.476 22.5L138.333 12.7H139.698L143.674 22.5H142.19L141.217 20.043H136.849L135.918 22.5H134.476ZM137.22 18.895H140.832L138.984 14.331L137.22 18.895ZM145.167 22.5V12.7H146.448L150.536 19.315H150.032L153.98 12.7H155.226V22.5H153.938L153.952 14.492L154.211 14.576L150.711 20.295H149.696L146.154 14.576L146.357 14.492L146.371 22.5H145.167Z" fill="white"/>
<defs>
<linearGradient id="paint0_linear_1_281" x1="91.75" y1="0" x2="91.75" y2="48.5" gradientUnits="userSpaceOnUse">
<stop stop-color="#991100"/>
<stop offset="1" stop-color="#0500FF"/>
</linearGradient>
</defs>
</svg>
