<svg width="30" height="30" viewBox="0 0 30 30" fill="none" xmlns="http://www.w3.org/2000/svg">
<path d="M11.7574 20.624H8.4375C6.94566 20.624 5.51492 20.0314 4.46002 18.9765C3.40513 17.9216 2.8125 16.4909 2.8125 14.999C2.8125 13.5072 3.40513 12.0764 4.46002 11.0215C5.51492 9.96666 6.94566 9.37402 8.4375 9.37402H11.6842" stroke="#F7F7F7" stroke-width="2.25" stroke-linecap="round" stroke-linejoin="round"/>
<path d="M18.3154 9.37402H21.5621C23.054 9.37402 24.4847 9.96666 25.5396 11.0215C26.5945 12.0764 27.1871 13.5072 27.1871 14.999C27.1871 16.4909 26.5945 17.9216 25.5396 18.9765C24.4847 20.0314 23.054 20.624 21.5621 20.624H18.2422" stroke="#F7F7F7" stroke-width="2.25" stroke-linecap="round" stroke-linejoin="round"/>
<path d="M9.90625 14.998H20.2105" stroke="#F7F7F7" stroke-width="2.25" stroke-linecap="round" stroke-linejoin="round"/>
</svg>
