<svg width="184" height="50" viewBox="0 0 184 50" fill="none" xmlns="http://www.w3.org/2000/svg">
<path d="M22 35.6531H1V1L182.5 1.00024V35.6533L39.5 35.6531H38.9626L38.666 36.1013L30.9764 47.7234L22.819 36.0793L22.5204 35.6531H22Z" fill="#232323" stroke="url(#paint0_linear_1_267)" stroke-width="2"/>
<path d="M19.5973 22.5V12.7H27.2693V22.5H25.9533V13.911H20.9133V22.5H19.5973ZM29.9058 22.5V12.7H33.3288C34.0148 12.7 34.6192 12.8167 35.1418 13.05C35.6645 13.2833 36.0728 13.6217 36.3668 14.065C36.6655 14.5037 36.8148 15.031 36.8148 15.647C36.8148 16.277 36.6772 16.809 36.4018 17.243C36.1265 17.677 35.7275 18.0083 35.2048 18.237C34.6822 18.461 34.0475 18.573 33.3008 18.573H31.2218V22.5H29.9058ZM31.2218 17.418H33.3428C34.0288 17.418 34.5585 17.2733 34.9318 16.984C35.3098 16.6947 35.4988 16.2583 35.4988 15.675C35.4988 15.1057 35.3052 14.6623 34.9178 14.345C34.5352 14.0277 34.0148 13.869 33.3568 13.869H31.2218V17.418ZM43.1915 22.71C42.4588 22.71 41.7798 22.5817 41.1545 22.325C40.5338 22.0637 39.9902 21.702 39.5235 21.24C39.0615 20.778 38.7022 20.2367 38.4455 19.616C38.1888 18.9953 38.0605 18.3233 38.0605 17.6C38.0605 16.872 38.1888 16.1977 38.4455 15.577C38.7022 14.9563 39.0615 14.415 39.5235 13.953C39.9902 13.491 40.5338 13.1317 41.1545 12.875C41.7798 12.6183 42.4588 12.49 43.1915 12.49C43.9195 12.49 44.5938 12.6207 45.2145 12.882C45.8352 13.1433 46.3788 13.5073 46.8455 13.974C47.3122 14.4407 47.6738 14.9843 47.9305 15.605C48.1918 16.221 48.3225 16.886 48.3225 17.6C48.3225 18.3233 48.1918 18.9953 47.9305 19.616C47.6738 20.2367 47.3122 20.778 46.8455 21.24C46.3788 21.702 45.8352 22.0637 45.2145 22.325C44.5938 22.5817 43.9195 22.71 43.1915 22.71ZM43.1915 21.457C43.7188 21.457 44.2088 21.366 44.6615 21.184C45.1188 21.002 45.5178 20.743 45.8585 20.407C46.1992 20.0663 46.4652 19.658 46.6565 19.182C46.8525 18.706 46.9505 18.1787 46.9505 17.6C46.9505 16.8207 46.7825 16.1417 46.4465 15.563C46.1152 14.9843 45.6648 14.5363 45.0955 14.219C44.5262 13.897 43.8915 13.736 43.1915 13.736C42.6642 13.736 42.1718 13.8293 41.7145 14.016C41.2618 14.198 40.8628 14.4593 40.5175 14.8C40.1768 15.136 39.9108 15.542 39.7195 16.018C39.5282 16.4893 39.4325 17.0167 39.4325 17.6C39.4325 18.3747 39.5982 19.0513 39.9295 19.63C40.2655 20.2087 40.7182 20.659 41.2875 20.981C41.8568 21.2983 42.4915 21.457 43.1915 21.457ZM56.6222 22.5V13.911H52.4992V15.689C52.4992 16.8977 52.4432 17.908 52.3312 18.72C52.2239 19.532 52.0559 20.19 51.8272 20.694C51.5986 21.198 51.2999 21.5853 50.9312 21.856C50.5626 22.1267 50.1146 22.325 49.5872 22.451L49.1112 21.408C49.5359 21.31 49.8836 21.1583 50.1542 20.953C50.4296 20.7477 50.6442 20.4397 50.7982 20.029C50.9569 19.6183 51.0666 19.063 51.1272 18.363C51.1926 17.663 51.2252 16.7717 51.2252 15.689V12.7H57.9382V22.5H56.6222ZM49.1112 24.999V21.408L50.1052 21.471L50.6372 21.289H59.4922V24.999H58.2532V22.5H50.3502V24.999H49.1112ZM60.1351 22.5L63.9921 12.7H65.3571L69.3331 22.5H67.8491L66.8761 20.043H62.5081L61.5771 22.5H60.1351ZM62.8791 18.895H66.4911L64.6431 14.331L62.8791 18.895ZM81.3108 22.5L77.6848 17.278L80.8908 12.7H82.4098L79.1968 17.271L82.9138 22.5H81.3108ZM69.9358 22.5L73.6388 17.334L70.4608 12.7H72.0288L75.1508 17.278L71.4898 22.5H69.9358ZM75.7738 22.5V17.852H74.1428V16.704H75.7738V12.7H77.0898V16.704H78.7068V17.852H77.0898V22.5H75.7738ZM83.5277 22.5L87.3847 12.7H88.7497L92.7257 22.5H91.2417L90.2687 20.043H85.9007L84.9697 22.5H83.5277ZM86.2717 18.895H89.8837L88.0357 14.331L86.2717 18.895ZM97.7183 22.5V12.7H99.0343V16.683H104.074V12.7H105.39V22.5H104.074V17.894H99.0343V22.5H97.7183ZM106.893 22.5L110.75 12.7H112.115L116.091 22.5H114.607L113.634 20.043H109.266L108.335 22.5H106.893ZM109.637 18.895H113.249L111.401 14.331L109.637 18.895ZM125.522 22.71C124.509 22.71 123.622 22.5 122.862 22.08C122.106 21.6553 121.518 21.0603 121.098 20.295C120.682 19.525 120.475 18.6267 120.475 17.6C120.475 16.858 120.598 16.1767 120.846 15.556C121.093 14.9307 121.443 14.3893 121.896 13.932C122.348 13.4747 122.883 13.12 123.499 12.868C124.119 12.616 124.796 12.49 125.529 12.49C126.252 12.49 126.884 12.581 127.426 12.763C127.967 12.9403 128.434 13.1947 128.826 13.526L128.126 14.604C127.808 14.3193 127.44 14.107 127.02 13.967C126.6 13.827 126.135 13.757 125.627 13.757C125.053 13.757 124.532 13.8457 124.066 14.023C123.599 14.2003 123.2 14.457 122.869 14.793C122.542 15.1243 122.29 15.5257 122.113 15.997C121.935 16.4683 121.847 16.998 121.847 17.586C121.847 18.398 122.003 19.091 122.316 19.665C122.633 20.239 123.081 20.6777 123.66 20.981C124.238 21.2797 124.922 21.429 125.711 21.429C126.219 21.429 126.707 21.3543 127.174 21.205C127.645 21.051 128.086 20.8013 128.497 20.456L129.113 21.576C128.632 21.954 128.093 22.2387 127.496 22.43C126.903 22.6167 126.245 22.71 125.522 22.71ZM129.711 22.5L133.568 12.7H134.933L138.909 22.5H137.425L136.452 20.043H132.084L131.153 22.5H129.711ZM132.455 18.895H136.067L134.219 14.331L132.455 18.895ZM140.402 22.5V12.7H141.711V20.302L146.926 12.7H148.172V22.5H146.863V14.849L141.634 22.5H140.402ZM144.287 11.44C143.788 11.44 143.349 11.3327 142.971 11.118C142.593 10.9033 142.301 10.6117 142.096 10.243C141.891 9.86967 141.795 9.44267 141.809 8.962H142.908C142.889 9.41933 143.006 9.79033 143.258 10.075C143.51 10.355 143.853 10.495 144.287 10.495C144.721 10.495 145.062 10.355 145.309 10.075C145.561 9.79033 145.675 9.41933 145.652 8.962H146.758C146.767 9.438 146.667 9.86267 146.457 10.236C146.252 10.6093 145.96 10.9033 145.582 11.118C145.204 11.3327 144.772 11.44 144.287 11.44ZM152.71 22.5V13.911H149.903V12.7H156.833V13.911H154.026V22.5H152.71ZM158.558 22.5V12.7H164.704V13.876H159.874V16.795H164.081V17.922H159.874V21.317H164.746V22.5H158.558Z" fill="white"/>
<defs>
<linearGradient id="paint0_linear_1_267" x1="91.75" y1="0" x2="91.75" y2="48.5" gradientUnits="userSpaceOnUse">
<stop stop-color="#991100"/>
<stop offset="1" stop-color="#0500FF"/>
</linearGradient>
</defs>
</svg>
