<svg width="448" height="79" viewBox="0 0 448 79" fill="none" xmlns="http://www.w3.org/2000/svg">
<path d="M0 16.9554V7.32819H62.9812V16.9554H37.8268V74.0516H25.2497V16.9554H0Z" fill="white"/>
<path d="M106.472 37.5444V47.1716H84.1762V74.0516H71.599V7.32819H107.901V16.9554H84.1762V37.5444H106.472Z" fill="white"/>
<path d="M130.326 64.4244H160.53V74.0516H113.652V73.9563C115.24 72.6219 116.764 71.3192 118.225 70.0482C124.196 64.9645 129.056 60.4528 132.803 56.5129C136.551 52.573 139.505 48.5061 141.665 44.312C143.888 40.118 144.999 35.7651 144.999 31.2533C144.999 28.3937 144.015 25.8201 142.046 23.5325C140.077 21.2448 137.059 19.4337 132.994 18.0993C128.929 16.7013 124.006 16.0022 118.225 16.0022V6.375C125.022 6.375 131.438 7.29642 137.472 9.13926C143.507 10.9185 148.366 13.5557 152.05 17.0508C155.798 20.5458 157.672 24.6763 157.672 29.4423C157.672 34.5259 156.338 39.6096 153.67 44.6933C151.002 49.777 147.54 54.6065 143.284 59.1819C139.092 63.7572 134.01 68.7138 128.039 74.0516L130.326 64.4244Z" fill="white"/>
<path d="M242.581 16.0022C239.595 16.0022 236.864 16.5424 234.386 17.6227C231.973 18.6394 230.067 20.0056 228.669 21.7214C227.272 23.3736 226.573 25.1847 226.573 27.1546C226.573 28.6797 227.59 30.4272 229.622 32.3971C231.655 34.3035 234.005 36.2099 236.673 38.1163L238.865 39.832C241.914 42.2468 244.296 44.7251 246.011 47.2669C247.726 49.8088 248.583 52.6684 248.583 55.8457C248.583 59.8491 246.773 63.3123 243.152 66.2355C239.595 69.095 235.276 71.2874 230.194 72.8125C225.112 74.274 220.475 75.0048 216.283 75.0048V65.3776C219.522 65.3776 222.667 64.901 225.716 63.9478C228.828 62.9311 231.306 61.5966 233.148 59.9444C235.053 58.2922 236.006 56.5129 236.006 54.6065C236.006 52.7001 235.022 50.6984 233.052 48.6014C231.083 46.5044 228.606 44.2485 225.62 41.8337C225.112 41.516 224.636 41.1665 224.191 40.7852L223.238 40.0227C221.142 38.3705 219.459 36.9089 218.188 35.638C216.918 34.3035 215.902 32.8102 215.139 31.158C214.377 29.5058 213.996 27.5676 213.996 25.3435C213.996 21.7849 215.616 18.5759 218.855 15.7163C222.095 12.7932 225.97 10.5055 230.48 8.8533C235.053 7.2011 239.087 6.375 242.581 6.375V16.0022Z" fill="white"/>
<path d="M269.792 74.0516H257.215V7.32819H269.792V33.8269H305.428V7.32819H318.005V74.0516H305.428V43.4542H269.792V74.0516Z" fill="white"/>
<path d="M405.218 46.1231C410.935 46.1231 416.08 45.3923 420.654 43.9308C425.291 42.4692 428.912 40.3722 431.516 37.6397C434.184 34.8437 435.518 31.571 435.518 27.8218C435.518 24.7716 434.47 22.4204 432.374 20.7682C430.341 19.0525 427.165 17.8451 422.845 17.1461C418.526 16.3835 412.65 16.0022 405.218 16.0022V6.375C418.558 6.375 429.007 7.90011 436.566 10.9503C444.188 14.0005 448 19.0207 448 26.0108C448 31.158 446.189 36.0193 442.569 40.5946C439.012 45.1064 433.993 48.7603 427.514 51.5563C421.035 54.3523 413.603 55.7504 405.218 55.7504V46.1231ZM405.218 74.0516V7.32819L417.795 7.90011V74.0516H405.218Z" fill="white"/>
<path d="M370.532 5.41709C385.719 9.29691 396.948 23.0739 396.948 39.4753C396.948 39.8497 396.941 40.2222 396.928 40.5936L373.296 37.2308C372.604 33.6683 370.298 30.6852 367.169 29.0697L370.532 5.41709ZM351.411 34.1159C353.026 30.9861 356.008 28.6791 359.569 27.9869L362.93 4.34466C362.559 4.33306 362.187 4.3252 361.813 4.3252C345.418 4.3252 331.647 15.5587 327.768 30.7512L351.411 34.1159ZM356.455 49.8812C353.327 48.2657 351.021 45.2822 350.329 41.7201L326.696 38.3569C326.685 38.7285 326.677 39.101 326.677 39.4753C326.677 55.8762 337.906 69.653 353.092 73.5332L356.455 49.8812ZM372.214 44.8346C370.599 47.9644 367.617 50.2712 364.056 50.9636L360.695 74.6062C361.066 74.6178 361.438 74.6259 361.812 74.6259C378.207 74.6259 391.979 63.3918 395.857 48.1995L372.214 44.8346Z" fill="url(#paint0_linear_1_1220)"/>
<path d="M370.532 5.41709C385.719 9.29691 396.948 23.0739 396.948 39.4753C396.948 39.8497 396.941 40.2222 396.928 40.5936L373.296 37.2308C372.604 33.6683 370.298 30.6852 367.169 29.0697L370.532 5.41709ZM351.411 34.1159C353.026 30.9861 356.008 28.6791 359.569 27.9869L362.93 4.34466C362.559 4.33306 362.187 4.3252 361.813 4.3252C345.418 4.3252 331.647 15.5587 327.768 30.7512L351.411 34.1159ZM356.455 49.8812C353.327 48.2657 351.021 45.2822 350.329 41.7201L326.696 38.3569C326.685 38.7285 326.677 39.101 326.677 39.4753C326.677 55.8762 337.906 69.653 353.092 73.5332L356.455 49.8812ZM372.214 44.8346C370.599 47.9644 367.617 50.2712 364.056 50.9636L360.695 74.6062C361.066 74.6178 361.438 74.6259 361.812 74.6259C378.207 74.6259 391.979 63.3918 395.857 48.1995L372.214 44.8346Z" fill="url(#paint1_radial_1_1220)"/>
<defs>
<linearGradient id="paint0_linear_1_1220" x1="369.599" y1="73.7594" x2="354.015" y2="5.19398" gradientUnits="userSpaceOnUse">
<stop stop-color="#FF1D00"/>
<stop offset="1" stop-color="#0500FF"/>
</linearGradient>
<radialGradient id="paint1_radial_1_1220" cx="0" cy="0" r="1" gradientUnits="userSpaceOnUse" gradientTransform="translate(332.837 7.0599) rotate(12.2091) scale(59.8707 35.8538)">
<stop stop-color="white" stop-opacity="0"/>
<stop offset="0.4657" stop-color="white" stop-opacity="0.0804"/>
<stop offset="0.9861" stop-color="white" stop-opacity="0.2143"/>
<stop offset="1" stop-color="white" stop-opacity="0"/>
</radialGradient>
</defs>
</svg>
