<svg width="24" height="24" viewBox="0 0 24 24" fill="none" xmlns="http://www.w3.org/2000/svg">
<g clip-path="url(#clip0_1_1550)">
<path d="M23.6648 20.6215L17.9186 14.6853C17.5066 14.2594 16.9916 14.0889 16.7685 14.3066C16.5446 14.5228 16.0292 14.3527 15.6172 13.9269L15.535 13.8416C18.1068 10.4592 17.8572 5.61626 14.7689 2.52795C11.3983 -0.842649 5.93327 -0.842649 2.5631 2.52795C-0.807493 5.89854 -0.807493 11.3628 2.5631 14.7334C5.70402 17.8747 10.6614 18.0851 14.0508 15.372L14.0868 15.4096C14.4981 15.8355 14.6513 16.3559 14.4267 16.5724C14.2032 16.789 14.3553 17.3097 14.7678 17.7348L20.5108 23.6734C20.9229 24.0982 21.6018 24.1108 22.0281 23.6984L23.6399 22.1389C24.0646 21.7275 24.0761 21.049 23.6648 20.6215ZM12.8722 12.8366C10.5527 15.1564 6.7782 15.1564 4.45905 12.8373C2.13955 10.5178 2.1399 6.7429 4.45905 4.42382C6.7782 2.10432 10.5527 2.10467 12.8715 4.42417C15.1913 6.74332 15.1913 10.5175 12.8722 12.8366Z" fill="white"/>
</g>
<defs>
<clipPath id="clip0_1_1550">
<rect width="24" height="24" fill="white"/>
</clipPath>
</defs>
</svg>
