<svg width="30" height="30" viewBox="0 0 30 30" fill="none" xmlns="http://www.w3.org/2000/svg">
<path d="M20.6242 8.4375H24.4642C24.6965 8.43773 24.9204 8.52416 25.0925 8.68004C25.2647 8.83592 25.3729 9.05016 25.3961 9.28125L25.968 15H24.0817L23.613 10.3125H20.6242V13.125C20.6242 13.3736 20.5255 13.6121 20.3496 13.7879C20.1738 13.9637 19.9354 14.0625 19.6867 14.0625C19.4381 14.0625 19.1996 13.9637 19.0238 13.7879C18.848 13.6121 18.7492 13.3736 18.7492 13.125V10.3125H11.2492V13.125C11.2492 13.3736 11.1505 13.6121 10.9746 13.7879C10.7988 13.9637 10.5604 14.0625 10.3117 14.0625C10.0631 14.0625 9.82463 13.9637 9.64882 13.7879C9.473 13.6121 9.37423 13.3736 9.37423 13.125V10.3125H6.38361L4.88361 25.3125H14.9992V27.1875H3.84673C3.71579 27.1874 3.58632 27.1598 3.46668 27.1066C3.34704 27.0534 3.23987 26.9757 3.15208 26.8786C3.06429 26.7814 2.99782 26.6669 2.95696 26.5425C2.91611 26.4181 2.90176 26.2865 2.91486 26.1562L4.60236 9.28125C4.62558 9.05016 4.73375 8.83592 4.90592 8.68004C5.07808 8.52416 5.30198 8.43773 5.53423 8.4375H9.37423V7.78312C9.37423 4.53188 11.8792 1.875 14.9992 1.875C18.1192 1.875 20.6242 4.53188 20.6242 7.78312V8.43937V8.4375ZM18.7492 8.4375V7.78312C18.7492 5.54437 17.058 3.75 14.9992 3.75C12.9405 3.75 11.2492 5.54437 11.2492 7.78312V8.43937H18.7492V8.4375ZM24.6499 22.6125L22.4992 20.4637V27.1875C22.4992 27.4361 22.4005 27.6746 22.2246 27.8504C22.0488 28.0262 21.8104 28.125 21.5617 28.125C21.3131 28.125 21.0746 28.0262 20.8988 27.8504C20.723 27.6746 20.6242 27.4361 20.6242 27.1875V20.4637L18.4755 22.6125C18.389 22.702 18.2856 22.7735 18.1712 22.8226C18.0568 22.8717 17.9338 22.8976 17.8093 22.8987C17.6848 22.8998 17.5614 22.876 17.4461 22.8289C17.3309 22.7818 17.2263 22.7121 17.1382 22.6241C17.0502 22.5361 16.9806 22.4314 16.9335 22.3162C16.8863 22.201 16.8626 22.0775 16.8637 21.9531C16.8648 21.8286 16.8906 21.7056 16.9398 21.5912C16.9889 21.4768 17.0603 21.3734 17.1499 21.2869L20.8999 17.5369C21.0757 17.3611 21.3141 17.2624 21.5627 17.2624C21.8113 17.2624 22.0497 17.3611 22.2255 17.5369L25.9755 21.2869C26.065 21.3734 26.1364 21.4768 26.1856 21.5912C26.2347 21.7056 26.2606 21.8286 26.2617 21.9531C26.2627 22.0775 26.239 22.201 26.1919 22.3162C26.1447 22.4314 26.0751 22.5361 25.9871 22.6241C25.8991 22.7121 25.7944 22.7818 25.6792 22.8289C25.564 22.876 25.4405 22.8998 25.316 22.8987C25.1916 22.8976 25.0685 22.8717 24.9542 22.8226C24.8398 22.7735 24.7363 22.702 24.6499 22.6125Z" fill="white"/>
</svg>
