<svg width="30" height="30" viewBox="0 0 30 30" fill="none" xmlns="http://www.w3.org/2000/svg">
<mask id="mask0_1_751" style="mask-type:alpha" maskUnits="userSpaceOnUse" x="0" y="0" width="30" height="30">
<circle cx="15" cy="15" r="15" fill="#F7F7F7"/>
</mask>
<g mask="url(#mask0_1_751)">
<circle cx="15" cy="15" r="15" fill="#C8C8C8"/>
<path d="M24.299 12.2961C24.299 12.7669 24.1595 13.2271 23.8979 13.6185C23.6364 14.01 23.2646 14.3151 22.8297 14.4952C22.3947 14.6754 21.9161 14.7225 21.4544 14.6307C20.9927 14.5388 20.5686 14.3121 20.2357 13.9792C19.9028 13.6463 19.6761 13.2222 19.5842 12.7605C19.4924 12.2988 19.5395 11.8202 19.7197 11.3852C19.8998 10.9503 20.2049 10.5785 20.5964 10.317C20.9878 10.0554 21.448 9.91585 21.9188 9.91585C22.5501 9.91585 23.1555 10.1666 23.6019 10.613C24.0483 11.0594 24.299 11.6648 24.299 12.2961ZM21.9056 7.7207C20.6966 7.72099 19.5367 8.19818 18.6775 9.04866C17.8184 9.89914 17.3294 11.0542 17.3169 12.2631L14.4606 16.3624C14.342 16.3492 14.2228 16.3426 14.1035 16.3426C13.4887 16.3422 12.8853 16.509 12.358 16.8253L-0.588051 11.6217C-0.726461 10.9908 -1.04046 10.4119 -1.4938 9.95179C-1.94715 9.49169 -2.52135 9.16917 -3.15015 9.02145C-3.77895 8.87373 -4.4367 8.90683 -5.04749 9.11693C-5.65828 9.32703 -6.19721 9.70556 -6.60208 10.2088C-7.00694 10.7121 -7.26124 11.3196 -7.33562 11.9613C-7.40999 12.6029 -7.30141 13.2524 -7.02242 13.835C-6.74342 14.4176 -6.30538 14.9093 -5.75885 15.2536C-5.21232 15.5978 -4.57958 15.7805 -3.93366 15.7806C-3.31881 15.781 -2.71543 15.6141 -2.18813 15.2979L10.7579 20.4948C10.9306 21.2921 11.3824 22.0015 12.0318 22.4952C12.6813 22.9888 13.4857 23.2342 14.3001 23.1871C15.1146 23.1401 15.8854 22.8036 16.4736 22.2385C17.0619 21.6733 17.429 20.9166 17.5087 20.1047L21.9056 16.8914C23.1217 16.8914 24.288 16.4083 25.1479 15.5484C26.0078 14.6884 26.4909 13.5221 26.4909 12.306C26.4909 11.0899 26.0078 9.92363 25.1479 9.06372C24.288 8.2038 23.1217 7.7207 21.9056 7.7207ZM21.9056 9.23482C22.5127 9.23548 23.106 9.41607 23.6106 9.75379C24.1151 10.0915 24.5083 10.5712 24.7403 11.1323C24.9724 11.6933 25.0329 12.3106 24.9143 12.906C24.7957 13.5015 24.5032 14.0484 24.0739 14.4777C23.6446 14.907 23.0977 15.1995 22.5022 15.3181C21.9068 15.4367 21.2895 15.3761 20.7285 15.1441C20.1674 14.9121 19.6877 14.5189 19.35 14.0144C19.0123 13.5098 18.8317 12.9165 18.831 12.3093C18.8317 11.4941 19.1559 10.7125 19.7323 10.1361C20.3087 9.55967 21.0904 9.23552 21.9056 9.23482ZM-3.93366 9.82989C-3.47608 9.82967 -3.02704 9.95382 -2.63457 10.1891C-2.2421 10.4243 -1.92094 10.7618 -1.70546 11.1655L-2.9551 10.663V10.6696C-3.44202 10.4912 -3.97923 10.5091 -4.45316 10.7196C-4.92709 10.9301 -5.30058 11.3167 -5.49465 11.7976C-5.68872 12.2785 -5.68817 12.816 -5.4931 13.2965C-5.29803 13.7769 -4.92375 14.1627 -4.44939 14.3723V14.3789L-3.38487 14.802C-3.5628 14.8421 -3.74466 14.8621 -3.92705 14.8615C-4.59428 14.8624 -5.23454 14.5982 -5.70697 14.127C-6.1794 13.6558 -6.4453 13.0163 -6.44617 12.349C-6.44705 11.6818 -6.18283 11.0415 -5.71164 10.5691C-5.24046 10.0967 -4.6009 9.83077 -3.93366 9.82989ZM14.1035 17.2484C14.5497 17.2486 14.9878 17.3672 15.3731 17.5922C15.7584 17.8173 16.077 18.1405 16.2963 18.5291C16.5156 18.9176 16.6279 19.3574 16.6215 19.8035C16.6151 20.2496 16.4904 20.6861 16.26 21.0682C16.0297 21.4503 15.702 21.7643 15.3104 21.9782C14.9189 22.1922 14.4776 22.2982 14.0316 22.2857C13.5856 22.2731 13.151 22.1423 12.7721 21.9066C12.3933 21.671 12.0838 21.3389 11.8753 20.9445C12.2919 21.1098 12.7018 21.2751 13.1184 21.447C13.363 21.5479 13.6251 21.5993 13.8897 21.5982C14.1543 21.5971 14.4161 21.5436 14.6598 21.4407C14.9036 21.3379 15.1246 21.1877 15.3099 20.9988C15.4953 20.81 15.6413 20.5863 15.7397 20.3407C15.838 20.095 15.8867 19.8323 15.8829 19.5678C15.879 19.3032 15.8228 19.042 15.7173 18.7994C15.6119 18.5567 15.4594 18.3373 15.2687 18.1539C15.0779 17.9706 14.8527 17.8268 14.606 17.7311L13.5548 17.3079C13.7355 17.2718 13.9192 17.2519 14.1035 17.2484Z" fill="#0D0323"/>
</g>
</svg>
