<svg width="30" height="30" viewBox="0 0 30 30" fill="none" xmlns="http://www.w3.org/2000/svg">
<g clip-path="url(#clip0_1_354)">
<path d="M16.9699 11.3711C16.9699 9.90484 18.1587 8.71609 19.624 8.71609C21.0893 8.71609 22.278 9.90485 22.278 11.3702C22.278 12.8364 21.0902 14.0242 19.624 14.0242C19.624 14.0242 19.624 14.0242 19.623 14.0242C18.1577 14.0242 16.9699 12.8364 16.9699 11.3711C16.9699 11.3711 16.969 11.3711 16.969 11.3702L16.9699 11.3711ZM23.1471 11.3767C23.1471 9.42578 21.5655 7.84422 19.6146 7.84422C17.6637 7.84422 16.0821 9.42578 16.0821 11.3767C16.0821 13.3277 17.6637 14.9092 19.6146 14.9092C21.5646 14.9064 23.1443 13.3258 23.1471 11.3767ZM9.77461 22.2752L8.04867 21.5608C8.53992 22.5714 9.55899 23.2558 10.7374 23.2558C11.9721 23.2558 13.0324 22.5048 13.4843 21.4342L13.4918 21.4145C13.6371 21.0752 13.7224 20.6795 13.7224 20.2652C13.7224 18.618 12.3874 17.283 10.7402 17.283C10.3605 17.283 9.99774 17.3542 9.66399 17.4827L9.68461 17.4761L11.4687 18.2139C12.2674 18.5552 12.8177 19.3352 12.8177 20.2427C12.8177 21.4577 11.8324 22.443 10.6174 22.443C10.3137 22.443 10.0249 22.3811 9.76149 22.2705L9.77555 22.2761L9.77461 22.2752ZM14.9749 0.941406C7.60899 0.942344 1.56773 6.60953 0.970547 13.8208L0.966797 13.8714L8.50242 16.9858C9.12867 16.5527 9.90399 16.2948 10.7402 16.2948C10.7412 16.2948 10.7421 16.2948 10.7421 16.2948C10.8162 16.2948 10.8884 16.2995 10.9624 16.3023L14.314 11.4498V11.3805C14.3168 8.45547 16.6887 6.08547 19.6137 6.08547C22.5406 6.08547 24.9134 8.45828 24.9134 11.3852C24.9134 14.312 22.5406 16.6848 19.6137 16.6848H19.4909L14.7152 20.0955C14.7152 20.1564 14.7199 20.2183 14.7199 20.282C14.7199 20.283 14.7199 20.2839 14.7199 20.2848C14.7199 22.4805 12.9396 24.2608 10.744 24.2608C8.82492 24.2608 7.22273 22.9005 6.85055 21.092L6.84586 21.0667L1.45055 18.8327C3.17648 24.7811 8.57649 29.0561 14.974 29.0561C22.7374 29.0561 29.0309 22.7627 29.0309 14.9992C29.0309 7.23578 22.7374 0.942344 14.974 0.942344L14.9749 0.941406Z" fill="white"/>
</g>
<defs>
<clipPath id="clip0_1_354">
<rect width="30" height="30" fill="white"/>
</clipPath>
</defs>
</svg>
