<svg width="100" height="100" viewBox="0 0 100 100" fill="none" xmlns="http://www.w3.org/2000/svg">
<path d="M66.9337 48.6283C65.905 39.984 59.1185 32.9395 49.9996 32.9395C40.7417 32.9395 32.9395 40.735 32.9395 50.0018C32.9395 59.2685 40.7417 67.0564 49.9996 67.0564C59.1211 67.0564 65.9025 60.0067 66.9337 51.3675C67.0421 50.9199 67.0845 50.459 67.0597 49.9992C67.0836 49.5386 67.0412 49.0769 66.9337 48.6283ZM42.0584 49.9941C42.0584 39.7191 57.4573 39.8091 57.9407 49.9941C57.4573 60.1661 42.0584 60.2819 42.0584 49.9941Z" fill="url(#paint0_linear_1_51)"/>
<path d="M95.5948 45.4335H85.7455C83.8759 32.1082 75.0553 20.7042 62.1046 15.9795C59.6699 15.0969 57.143 14.4929 54.5723 14.1792V4.40575C54.5723 -1.46344 45.4534 -1.47373 45.4534 4.40575V14.2435C36.4759 15.4394 27.9664 19.9583 22.1314 27.1238C17.8694 32.3846 15.1585 38.7297 14.3034 45.4464H4.40519C-1.46325 45.4464 -1.47354 54.5665 4.40519 54.5665H14.2545C14.8423 59.5204 16.4734 64.2934 19.0403 68.5708C24.8444 78.2027 34.6963 84.2957 45.4482 85.7077V95.5942C45.4482 101.463 54.5672 101.474 54.5672 95.5942V85.7617C55.3181 85.6717 56.0716 85.5688 56.8199 85.4325C72.3139 82.6573 83.5648 69.651 85.7352 54.5536H95.5948C101.463 54.5536 101.474 45.4335 95.5948 45.4335ZM59.0984 75.4122C53.9002 77.2328 48.2726 77.436 42.9567 75.9948C37.6409 74.5537 32.8862 71.5358 29.319 67.3388C13.375 48.435 30.6537 18.7469 54.9941 23.4588C67.7879 25.9355 76.7268 37.0901 76.9814 49.9936C76.7577 61.2767 69.8838 71.5979 59.0984 75.4122Z" fill="url(#paint1_linear_1_51)"/>
<defs>
<linearGradient id="paint0_linear_1_51" x1="53.7843" y1="66.6359" x2="46.2263" y2="33.3588" gradientUnits="userSpaceOnUse">
<stop stop-color="#FF1D00"/>
<stop offset="1" stop-color="#0500FF"/>
</linearGradient>
<linearGradient id="paint1_linear_1_51" x1="61.0799" y1="98.7674" x2="38.9208" y2="1.23186" gradientUnits="userSpaceOnUse">
<stop stop-color="#FF1D00"/>
<stop offset="1" stop-color="#0500FF"/>
</linearGradient>
</defs>
</svg>
